<svg xmlns="http://www.w3.org/2000/svg" width="226" height="256" viewBox="0 0 226 256">
  <g fill="none">
    <polygon fill="#264DE4" points="112.468 255.198 20.816 229.754 .391 .674 224.818 .674 204.372 229.718"/>
    <polygon fill="#2965F1" points="186.869 215.134 204.341 19.404 112.605 19.404 112.605 235.722"/>
    <polygon fill="#EBEBEB" points="47.214 104.367 49.732 132.463 112.605 132.463 112.605 104.367"/>
    <polygon fill="#EBEBEB" points="42.154 47.501 44.708 75.597 112.605 75.597 112.605 47.501"/>
    <polygon fill="#EBEBEB" points="112.605 177.335 112.482 177.368 81.192 168.919 79.191 146.511 50.987 146.511 54.923 190.626 112.475 206.603 112.605 206.566"/>
    <polygon fill="#FFF" points="177.816 104.367 182.888 47.501 112.508 47.501 112.508 75.597 152.097 75.597 149.541 104.367 112.508 104.367 112.508 132.463 147.105 132.463 143.843 168.901 112.508 177.359 112.508 206.588 170.105 190.626 170.529 185.879 177.131 111.912"/>
  </g>
</svg>
