<svg xmlns="http://www.w3.org/2000/svg" width="171" height="256" viewBox="0 0 171 256">
  <g fill="none">
    <path fill="#0ACF83" d="M42.6666667,256 C66.2186667,256 85.3333333,236.885333 85.3333333,213.333333 L85.3333333,170.666667 L42.6666667,170.666667 C19.1146667,170.666667 0,189.781333 0,213.333333 C0,236.885333 19.1146667,256 42.6666667,256 Z"/>
    <path fill="#A259FF" d="M0,128 C0,104.448 19.1146667,85.3333333 42.6666667,85.3333333 L85.3333333,85.3333333 L85.3333333,170.666667 L42.6666667,170.666667 C19.1146667,170.666667 0,151.552 0,128 Z"/>
    <path fill="#F24E1E" d="M0,42.6666667 C0,19.1146667 19.1146667,0 42.6666667,0 L85.3333333,0 L85.3333333,85.3333333 L42.6666667,85.3333333 C19.1146667,85.3333333 0,66.2186667 0,42.6666667 Z"/>
    <path fill="#FF7262" d="M85.3333333,0 L128,0 C151.552,0 170.666667,19.1146667 170.666667,42.6666667 C170.666667,66.2186667 151.552,85.3333333 128,85.3333333 L85.3333333,85.3333333 L85.3333333,0 Z"/>
    <path fill="#1ABCFE" d="M170.666667,128 C170.666667,151.552 151.552,170.666667 128,170.666667 C104.448,170.666667 85.3333333,151.552 85.3333333,128 C85.3333333,104.448 104.448,85.3333333 128,85.3333333 C151.552,85.3333333 170.666667,104.448 170.666667,128 Z"/>
  </g>
</svg>
