<svg xmlns="http://www.w3.org/2000/svg" width="226" height="256" viewBox="0 0 226 256">
  <g fill="none">
    <polygon fill="#E44D26" points="224.818 .674 204.372 229.718 112.468 255.198 20.816 229.754 .391 .674"/>
    <polygon fill="#F16529" points="112.605 235.722 186.869 215.134 204.341 19.404 112.605 19.404"/>
    <polygon fill="#EBEBEB" points="72.859 75.597 112.605 75.597 112.605 47.501 42.154 47.501 42.826 55.038 49.732 132.463 112.605 132.463 112.605 104.367 75.427 104.367"/>
    <polygon fill="#EBEBEB" points="79.191 146.511 50.987 146.511 54.923 190.626 112.475 206.603 112.605 206.566 112.605 177.335 112.482 177.368 81.192 168.919"/>
    <polygon fill="#FFF" points="112.508 132.463 147.105 132.463 143.843 168.901 112.508 177.359 112.508 206.588 170.105 190.626 170.529 185.879 177.131 111.912 177.816 104.367 112.508 104.367"/>
    <polygon fill="#FFF" points="112.508 75.528 112.508 75.597 180.373 75.597 180.936 69.282 182.217 55.038 182.888 47.501 112.508 47.501"/>
  </g>
</svg>
