<svg xmlns="http://www.w3.org/2000/svg" width="190" height="256" viewBox="0 0 190 256">
  <g fill="none">
    <path fill="#5382A1" d="M61.0803785 197.898746C61.0803785 197.898746 51.3150668 203.577614 68.0300184 205.499268 88.2797126 207.809387 98.6290971 207.478091 120.944398 203.254583 120.944398 203.254583 126.811299 206.933278 135.004849 210.119505 84.9798393 231.559386 21.7883954 208.877662 61.0803785 197.898746M54.9675882 169.921107C54.9675882 169.921107 44.0148454 178.028561 60.7421948 179.758739 82.3735521 181.990338 99.4563041 182.172861 129.016036 176.480906 129.016036 176.480906 133.104546 180.625894 139.533479 182.89262 79.05026 200.578731 11.6828338 184.28737 54.9675882 169.921107"/>
    <path fill="#E76F00" d="M106.500305,122.461747 C118.826445,136.653063 103.261732,149.423458 103.261732,149.423458 C103.261732,149.423458 134.559907,133.266405 120.186068,113.033931 C106.761347,94.1658991 96.466375,84.7911177 152.199181,52.4680596 C152.199181,52.4680596 64.7170583,74.3170664 106.500305,122.461747"/>
    <path fill="#5382A1" d="M172.662393 218.592693C172.662393 218.592693 179.888916 224.547068 164.703711 229.153529 135.828612 237.900846 44.5224653 240.54226 19.1580015 229.502044 10.040129 225.535446 27.1387228 220.030835 32.5172895 218.875776 38.1265925 217.659416 41.3321053 217.886021 41.3321053 217.886021 31.1921054 210.742837-24.208716 231.912033 13.1912293 237.974544 115.186322 254.515238 199.118549 230.526238 172.662393 218.592693M65.776379 140.93305C65.776379 140.93305 19.3322591 151.964312 49.329357 155.97017 61.9950586 157.66591 87.24381 157.282268 110.762384 155.311711 129.983063 153.690358 149.282949 150.243088 149.282949 150.243088 149.282949 150.243088 142.505501 153.145545 137.602182 156.493632 90.4389912 168.897602-.67154598 163.127128 25.5580068 150.439386 47.7403759 139.716691 65.776379 140.93305 65.776379 140.93305M149.091473 187.503214C197.035035 162.589891 174.867818 138.648416 159.395399 141.873903 155.603058 142.663228 153.912139 143.347172 153.912139 143.347172 153.912139 143.347172 155.319976 141.141746 158.008915 140.187118 188.618325 129.425851 212.158938 171.926103 148.12789 188.758833 148.12789 188.759522 148.86969 188.09624 149.091473 187.503214"/>
    <path fill="#E76F00" d="M120.186068,0.274817278 C120.186068,0.274817278 146.737962,26.8356661 95.002749,67.6787483 C53.5163601,100.441927 85.5425598,119.122614 94.9855297,140.466067 C70.7692373,118.617061 52.99772,99.3832953 64.920244,81.4822896 C82.4196994,55.2052121 130.89912,42.465124 120.186068,0.274817278"/>
    <path fill="#5382A1" d="M70.4875324,255.012526 C116.507373,257.958374 187.176051,253.378086 188.84975,231.602778 C188.84975,231.602778 185.632528,239.857628 150.816829,246.413294 C111.537933,253.805121 63.0929502,252.942098 34.3597362,248.204772 C34.3597362,248.204083 40.2417902,253.072963 70.4875324,255.012526"/>
  </g>
</svg>
