<svg xmlns="http://www.w3.org/2000/svg" width="256" height="135" viewBox="0 0 256 135">
  <defs>
    <radialGradient id="php-a" cx="30.02%" cy="17.584%" r="124.885%" fx="30.02%" fy="17.584%" gradientTransform="matrix(.52578 0 0 1 .142 0)">
      <stop offset="0%" stop-color="#FFF"/>
      <stop offset="50%" stop-color="#4C6B97"/>
      <stop offset="100%" stop-color="#231F20"/>
    </radialGradient>
  </defs>
  <g fill="none">
    <ellipse cx="128" cy="67.3" fill="url(#php-a)" rx="128" ry="67.3"/>
    <ellipse cx="128" cy="67.3" fill="#6181B6" rx="123" ry="62.3"/>
    <path fill="#FFF" d="M116.9 70.5C116.9 70.5 123 39.1 123 39.1 124.4 32 123.2 26.7 119.6 23.4 116.1 20.2 110.1 18.6 101.3 18.6L90.7 18.6 93.7 3C93.8 2.4 93.7 1.8 93.3 1.3 92.9.8 92.4.6 91.8.6L77.2.6C76.2.6 75.4 1.3 75.2 2.2L68.7 35.5C68.1 31.7 66.7 28.5 64.3 25.9 60 21 53.3 18.5 44.2 18.5L16.1 18.5C15.1 18.5 14.3 19.2 14.1 20.1L1 87.7C.9 88.3 1 88.9 1.4 89.4 1.8 89.9 2.3 90.1 2.9 90.1L17.6 90.1C18.6 90.1 19.4 89.4 19.6 88.5L22.8 72.2 33.7 72.2C39.4 72.2 44.3 71.6 48 70.4 51.9 69.1 55.4 67 58.5 64.1 61 61.8 63.1 59.2 64.7 56.4L62.1 69.9C62 70.5 62.1 71.1 62.5 71.6 62.9 72.1 63.4 72.3 64 72.3L78.6 72.3C79.6 72.3 80.4 71.6 80.6 70.7L87.8 33.7 97.8 33.7C102.1 33.7 103.3 34.5 103.7 34.9 104 35.2 104.6 36.4 103.9 40.1L98.1 70C98 70.6 98.1 71.2 98.5 71.7 98.9 72.2 99.4 72.4 100 72.4L115 72.4C115.9 72.1 116.7 71.4 116.9 70.5zM49.3 44.5C48.4 49.2 46.7 52.6 44.2 54.5 41.7 56.4 37.6 57.4 32.2 57.4L25.7 57.4 30.4 33.2 38.8 33.2C45 33.2 47.5 34.5 48.5 35.6 49.8 37.2 50.1 40.3 49.3 44.5zM179.3 25.9C175 21 168.3 18.5 159.2 18.5L130.9 18.5C129.9 18.5 129.1 19.2 128.9 20.1L115.8 87.6C115.7 88.2 115.8 88.8 116.2 89.3 116.6 89.8 117.1 90 117.7 90L132.4 90C133.4 90 134.2 89.3 134.4 88.4L137.6 72.1 148.5 72.1C154.2 72.1 159.1 71.5 162.8 70.3 166.7 69 170.2 66.9 173.3 64 175.9 61.6 178.1 58.9 179.7 56 181.3 53.1 182.5 49.9 183.2 46.4 184.9 37.7 183.6 30.9 179.3 25.9zM164 44.5C163.1 49.2 161.4 52.6 158.9 54.5 156.4 56.4 152.3 57.4 146.9 57.4L140.4 57.4 145.1 33.2 153.5 33.2C159.7 33.2 162.2 34.5 163.2 35.6 164.6 37.2 164.9 40.3 164 44.5z" transform="translate(36 17)"/>
    <path fill="#000004" d="M35.8 29.2C41.4 29.2 45.1 30.2 47 32.3 48.9 34.4 49.3 37.9 48.3 42.9 47.3 48.1 45.3 51.9 42.4 54.1 39.5 56.3 35.1 57.4 29.2 57.4L20.3 57.4 25.8 29.2 35.8 29.2zM0 86L14.7 86 18.2 68.1 30.8 68.1C36.4 68.1 40.9 67.5 44.5 66.3 48.1 65.1 51.3 63.2 54.3 60.4 56.8 58.1 58.8 55.6 60.3 52.9 61.8 50.2 62.9 47.2 63.5 43.9 65.1 35.9 63.9 29.7 60 25.2 56.1 20.7 49.9 18.5 41.4 18.5L13.1 18.5 0 86zM74.3.6L88.9.6 85.4 18.5 98.4 18.5C106.6 18.5 112.2 19.9 115.3 22.8 118.4 25.7 119.3 30.3 118.1 36.7L112 68.1 97.2 68.1 103 38.2C103.7 34.8 103.4 32.5 102.3 31.3 101.2 30.1 98.7 29.4 95 29.4L83.3 29.4 75.8 68.1 61.2 68.1 74.3.6zM150.5 29.2C156.1 29.2 159.8 30.2 161.7 32.3 163.6 34.4 164 37.9 163 42.9 162 48.1 160 51.9 157.1 54.1 154.2 56.3 149.8 57.4 143.9 57.4L135 57.4 140.5 29.2 150.5 29.2zM114.7 86L129.4 86 132.9 68.1 145.5 68.1C151.1 68.1 155.6 67.5 159.2 66.3 162.8 65.1 166 63.2 169 60.4 171.5 58.1 173.5 55.6 175 52.9 176.5 50.2 177.6 47.2 178.2 43.9 179.8 35.9 178.6 29.7 174.7 25.2 170.8 20.7 164.6 18.5 156.1 18.5L127.8 18.5 114.7 86z" transform="translate(39 19)"/>
  </g>
</svg>
